<svg width="411" height="455" viewBox="0 0 411 455" fill="none" xmlns="http://www.w3.org/2000/svg">
<path d="M112.405 395.173C115.612 397.044 117.929 400.288 115.327 404.85C112.725 409.412 105.561 407.47 102.727 405.064C98.6281 401.571 94.0122 393.622 95.5983 392.036C97.1845 390.45 109.214 393.319 112.422 395.19L112.405 395.173Z" fill="#00625F"/>
<path d="M342.416 222.085V222.013C339.083 204.708 327.535 189.631 310.693 180.648C294.154 171.809 275.583 170.615 259.704 177.369C231.224 190.379 223.614 227.057 234.361 253.131C241.65 271.701 261.308 280.862 279.593 280.862C283.318 280.862 286.99 280.47 290.483 279.721C307.556 277.262 324.166 267.638 333.844 254.61C341.169 244.754 344.127 233.491 342.416 222.085ZM319.354 247.036C310.497 256.731 294.724 263.004 280.164 262.576C267.278 262.363 256.425 255.697 252.54 245.592C247.157 231.673 249.1 214.19 257.298 203.086C263.375 194.977 272.393 190.7 282.89 190.7C286.116 190.7 289.485 191.11 292.96 191.93C310.265 196.065 324.22 209.467 326.911 224.526C327.873 232.778 325.253 240.548 319.354 247.036Z" fill="#00625F"/>
<path d="M342.416 222.085V222.013C339.083 204.708 327.535 189.631 310.693 180.648C294.154 171.809 275.583 170.615 259.704 177.369C231.224 190.379 223.614 227.057 234.361 253.131C241.65 271.701 261.308 280.862 279.593 280.862C283.318 280.862 286.99 280.47 290.483 279.721C307.556 277.262 324.166 267.638 333.844 254.61C341.169 244.754 344.127 233.491 342.416 222.085ZM319.354 247.036C310.497 256.731 294.724 263.004 280.164 262.576C267.278 262.363 256.425 255.697 252.54 245.592C247.157 231.673 249.1 214.19 257.298 203.086C263.375 194.977 272.393 190.7 282.89 190.7C286.116 190.7 289.485 191.11 292.96 191.93C310.265 196.065 324.22 209.467 326.911 224.526C327.873 232.778 325.253 240.548 319.354 247.036Z" fill="#00625F"/>
<path d="M359.186 198.702C349.651 171.737 330.35 149.692 306.236 138.196C284.03 127.61 259.792 126.469 236.142 134.899C211.067 143.543 190.375 163.005 179.379 188.348C168.65 213.031 168.508 240.655 178.951 264.091C191.944 295.422 221.564 319.447 256.263 326.789C263.303 328.286 270.289 329.017 277.151 329.017C300.266 329.017 321.831 320.676 338.334 304.957C369.095 276.317 370.966 230.942 359.186 198.702ZM298.894 309.145C276.884 318.68 252.36 318.555 231.616 308.807C211.494 299.361 196.863 282.002 190.411 259.974C182.712 232.867 187.809 204.726 204.437 182.787C220.905 161.026 246.301 148.569 274.175 148.569H274.549C310.692 148.212 343.574 169.599 354.374 200.413V200.467C371.233 244.754 338.69 293.284 298.894 309.145Z" fill="#00625F"/>
<path d="M342.416 222.085V222.013C339.083 204.708 327.535 189.631 310.693 180.648C294.154 171.809 275.583 170.615 259.704 177.369C231.224 190.379 223.614 227.057 234.361 253.131C241.65 271.701 261.308 280.862 279.593 280.862C283.318 280.862 286.99 280.47 290.483 279.721C307.556 277.262 324.166 267.638 333.844 254.61C341.169 244.754 344.127 233.491 342.416 222.085ZM319.354 247.036C310.497 256.731 294.724 263.004 280.164 262.576C267.278 262.363 256.425 255.697 252.54 245.592C247.157 231.673 249.1 214.19 257.298 203.086C263.375 194.977 272.393 190.7 282.89 190.7C286.116 190.7 289.485 191.11 292.96 191.93C310.265 196.065 324.22 209.467 326.911 224.526C327.873 232.778 325.253 240.548 319.354 247.036Z" fill="#00625F"/>
<path d="M342.416 222.085V222.013C339.083 204.708 327.535 189.631 310.693 180.648C294.154 171.809 275.583 170.615 259.704 177.369C231.224 190.379 223.614 227.057 234.361 253.131C241.65 271.701 261.308 280.862 279.593 280.862C283.318 280.862 286.99 280.47 290.483 279.721C307.556 277.262 324.166 267.638 333.844 254.61C341.169 244.754 344.127 233.491 342.416 222.085ZM319.354 247.036C310.497 256.731 294.724 263.004 280.164 262.576C267.278 262.363 256.425 255.697 252.54 245.592C247.157 231.673 249.1 214.19 257.298 203.086C263.375 194.977 272.393 190.7 282.89 190.7C286.116 190.7 289.485 191.11 292.96 191.93C310.265 196.065 324.22 209.467 326.911 224.526C327.873 232.778 325.253 240.548 319.354 247.036Z" fill="#00625F"/>
<path d="M359.186 198.702C349.651 171.737 330.35 149.692 306.236 138.196C284.03 127.61 259.792 126.469 236.142 134.899C211.067 143.543 190.375 163.005 179.379 188.348C168.65 213.031 168.508 240.655 178.951 264.091C191.944 295.422 221.564 319.447 256.263 326.789C263.303 328.286 270.289 329.017 277.151 329.017C300.266 329.017 321.831 320.676 338.334 304.957C369.095 276.317 370.966 230.942 359.186 198.702ZM298.894 309.145C276.884 318.68 252.36 318.555 231.616 308.807C211.494 299.361 196.863 282.002 190.411 259.974C182.712 232.867 187.809 204.726 204.437 182.787C220.905 161.026 246.301 148.569 274.175 148.569H274.549C310.692 148.212 343.574 169.599 354.374 200.413V200.467C371.233 244.754 338.69 293.284 298.894 309.145Z" fill="#00625F"/>
<path d="M388.2 128.483C353.875 81.6293 298.662 58.9418 240.509 67.7459C182.106 76.6035 135.894 114.814 116.895 169.902C88.5761 249.299 129.192 342.99 205.578 374.517C223.489 381.984 242.273 385.709 261.058 385.709C279.842 385.709 299.803 381.753 318.213 373.84C357.742 356.837 389.537 323.189 405.434 281.539C425.573 230.39 418.801 170.312 388.2 128.483ZM400.818 279.739V279.775C384.992 321.621 349.295 352.168 302.868 363.592C252.895 375.871 199.34 363.414 163.019 331.049C118.874 293.569 104.135 227.627 127.963 174.233C149.153 125.685 192.603 92.9641 244.18 86.7086C250.169 85.9779 256.121 85.6214 262.038 85.6214C307.609 85.6214 350.435 106.847 379.164 144.434C409.533 183.215 418.034 236.325 400.818 279.739Z" fill="#00625F"/>
<path d="M342.416 222.085V222.013C339.083 204.708 327.535 189.631 310.693 180.648C294.154 171.809 275.583 170.615 259.704 177.369C231.224 190.379 223.614 227.057 234.361 253.131C241.65 271.701 261.308 280.862 279.593 280.862C283.318 280.862 286.99 280.47 290.483 279.721C307.556 277.262 324.166 267.638 333.844 254.61C341.169 244.754 344.127 233.491 342.416 222.085ZM319.354 247.036C310.497 256.731 294.724 263.004 280.164 262.576C267.278 262.363 256.425 255.697 252.54 245.592C247.157 231.673 249.1 214.19 257.298 203.086C263.375 194.977 272.393 190.7 282.89 190.7C286.116 190.7 289.485 191.11 292.96 191.93C310.265 196.065 324.22 209.467 326.911 224.526C327.873 232.778 325.253 240.548 319.354 247.036Z" fill="#00625F"/>
<path d="M359.186 198.702C349.651 171.737 330.35 149.692 306.236 138.196C284.03 127.61 259.792 126.469 236.142 134.899C211.067 143.543 190.375 163.005 179.379 188.348C168.65 213.031 168.508 240.655 178.951 264.091C191.944 295.422 221.564 319.447 256.263 326.789C263.303 328.286 270.289 329.017 277.151 329.017C300.266 329.017 321.831 320.676 338.334 304.957C369.095 276.317 370.966 230.942 359.186 198.702ZM298.894 309.145C276.884 318.68 252.36 318.555 231.616 308.807C211.494 299.361 196.863 282.002 190.411 259.974C182.712 232.867 187.809 204.726 204.437 182.787C220.905 161.026 246.301 148.569 274.175 148.569H274.549C310.692 148.212 343.574 169.599 354.374 200.413V200.467C371.233 244.754 338.69 293.284 298.894 309.145Z" fill="#00625F"/>
<path d="M36.6252 224.117C41.9183 169.866 68.4197 119.162 111.264 81.3441C154.019 43.6149 207.432 23.5829 261.735 25.0265C316.841 26.4522 367.616 50.1199 404.722 91.6631C405.363 92.4651 406.308 92.9641 407.324 93.0532C408.411 93.1601 409.516 92.7859 410.3 92.0373C411.084 91.3066 411.512 90.2551 411.476 89.168C411.441 88.2056 411.066 87.2789 410.389 86.6016C366.565 35.0603 302.548 6.545 234.717 8.27374C168.045 10.0025 106.309 41.7257 65.39 95.2988C0.909798 178.955 5.63264 300.912 76.3505 378.937C76.903 379.56 77.4555 380.166 78.0258 380.772L78.8812 381.699L79.3268 381.949C80.0931 382.394 80.9664 382.626 81.8397 382.626C82.3031 382.626 82.7486 382.572 83.1942 382.43C84.4239 382.073 85.4576 381.253 86.0279 380.166C86.919 378.473 86.6873 376.388 85.3506 374.802C48.5659 332.706 31.2607 279.187 36.6252 224.117Z" fill="#00625F"/>
<path d="M465.12 221.247L464.978 220.463C464.318 218.378 462.447 216.934 460.397 217.023C459.096 217.077 457.884 217.718 457.029 218.788C456.191 219.857 455.835 221.211 456.013 222.566C457.154 262.434 447.494 301.268 428.032 334.916C392.531 398.06 328.265 438.961 255.907 444.361C253.091 444.735 251.024 447.284 251.309 450.064C251.541 452.328 253.305 454.199 255.604 454.609L255.978 454.68H256.353C261.771 454.413 267.188 453.949 272.428 453.308C330.154 446.357 381.535 417.967 417.108 373.34C451.379 330.354 468.435 276.335 465.12 221.229V221.247Z" fill="#00625F"/>
</svg>
