<svg width="727" height="900" viewBox="0 0 727 900" fill="none" xmlns="http://www.w3.org/2000/svg">
<path d="M256.932 820.06C264.297 824.356 269.616 831.803 263.642 842.277C257.669 852.751 241.221 848.292 234.715 842.768C225.304 834.749 214.707 816.5 218.349 812.859C221.99 809.217 249.608 815.805 256.973 820.101L256.932 820.06Z" fill="#E4E4E4"/>
<path d="M784.985 422.689V422.526C777.334 382.797 750.821 348.183 712.156 327.561C674.187 307.267 631.553 304.526 595.097 320.033C529.714 349.901 512.244 434.105 536.916 493.964C553.65 536.598 598.78 557.628 640.759 557.628C649.31 557.628 657.739 556.728 665.758 555.01C704.955 549.363 743.088 527.269 765.305 497.36C782.121 474.734 788.913 448.875 784.985 422.689ZM732.041 479.971C711.706 502.229 675.496 516.631 642.068 515.649C612.486 515.158 587.569 499.856 578.649 476.657C566.293 444.702 570.753 404.564 589.574 379.074C603.526 360.457 624.229 350.638 648.328 350.638C655.734 350.638 663.467 351.579 671.445 353.461C711.174 362.953 743.211 393.721 749.389 428.295C751.598 447.239 745.584 465.078 732.041 479.971Z" fill="#E4E4E4"/>
<path d="M784.985 422.689V422.526C777.334 382.797 750.821 348.183 712.156 327.561C674.187 307.267 631.553 304.526 595.097 320.033C529.714 349.901 512.244 434.105 536.916 493.964C553.65 536.598 598.78 557.628 640.759 557.628C649.31 557.628 657.739 556.728 665.758 555.01C704.955 549.363 743.088 527.269 765.305 497.36C782.121 474.734 788.913 448.875 784.985 422.689ZM732.041 479.971C711.706 502.229 675.496 516.631 642.068 515.649C612.486 515.158 587.569 499.856 578.649 476.657C566.293 444.702 570.753 404.564 589.574 379.074C603.526 360.457 624.229 350.638 648.328 350.638C655.734 350.638 663.467 351.579 671.445 353.461C711.174 362.953 743.211 393.721 749.389 428.295C751.598 447.239 745.584 465.078 732.041 479.971Z" fill="#E4E4E4"/>
<path d="M823.485 369.009C801.595 307.104 757.284 256.492 701.926 230.101C650.945 205.797 595.3 203.179 541.005 222.532C483.438 242.376 435.935 287.055 410.69 345.237C386.059 401.905 385.732 465.324 409.708 519.127C439.535 591.056 507.537 646.21 587.199 663.067C603.361 666.504 619.399 668.182 635.152 668.182C688.219 668.182 737.727 649.033 775.614 612.946C846.234 547.195 850.53 443.025 823.485 369.009ZM685.068 622.561C634.538 644.451 578.238 644.165 530.613 621.784C484.42 600.099 450.828 560.247 436.017 509.676C418.341 447.443 430.043 382.838 468.217 332.471C506.023 282.514 564.327 253.914 628.319 253.914H629.178C712.154 253.096 787.643 302.194 812.438 372.937V373.059C851.144 474.734 776.432 586.147 685.068 622.561Z" fill="#E4E4E4"/>
<path d="M784.985 422.689V422.526C777.334 382.797 750.821 348.183 712.156 327.561C674.187 307.267 631.553 304.526 595.097 320.033C529.714 349.901 512.244 434.105 536.916 493.964C553.65 536.598 598.78 557.628 640.759 557.628C649.31 557.628 657.739 556.728 665.758 555.01C704.955 549.363 743.088 527.269 765.305 497.36C782.121 474.734 788.913 448.875 784.985 422.689ZM732.041 479.971C711.706 502.229 675.496 516.631 642.068 515.649C612.486 515.158 587.569 499.856 578.649 476.657C566.293 444.702 570.753 404.564 589.574 379.074C603.526 360.457 624.229 350.638 648.328 350.638C655.734 350.638 663.467 351.579 671.445 353.461C711.174 362.953 743.211 393.721 749.389 428.295C751.598 447.239 745.584 465.078 732.041 479.971Z" fill="#E4E4E4"/>
<path d="M784.985 422.689V422.526C777.334 382.797 750.821 348.183 712.156 327.561C674.187 307.267 631.553 304.526 595.097 320.033C529.714 349.901 512.244 434.105 536.916 493.964C553.65 536.598 598.78 557.628 640.759 557.628C649.31 557.628 657.739 556.728 665.758 555.01C704.955 549.363 743.088 527.269 765.305 497.36C782.121 474.734 788.913 448.875 784.985 422.689ZM732.041 479.971C711.706 502.229 675.496 516.631 642.068 515.649C612.486 515.158 587.569 499.856 578.649 476.657C566.293 444.702 570.753 404.564 589.574 379.074C603.526 360.457 624.229 350.638 648.328 350.638C655.734 350.638 663.467 351.579 671.445 353.461C711.174 362.953 743.211 393.721 749.389 428.295C751.598 447.239 745.584 465.078 732.041 479.971Z" fill="#E4E4E4"/>
<path d="M823.485 369.009C801.595 307.104 757.284 256.492 701.926 230.101C650.945 205.797 595.3 203.179 541.005 222.532C483.438 242.376 435.935 287.055 410.69 345.237C386.059 401.905 385.732 465.324 409.708 519.127C439.535 591.056 507.537 646.21 587.199 663.067C603.361 666.504 619.399 668.182 635.152 668.182C688.219 668.182 737.727 649.033 775.614 612.946C846.234 547.195 850.53 443.025 823.485 369.009ZM685.068 622.561C634.538 644.451 578.238 644.165 530.613 621.784C484.42 600.099 450.828 560.247 436.017 509.676C418.341 447.443 430.043 382.838 468.217 332.471C506.023 282.514 564.327 253.914 628.319 253.914H629.178C712.154 253.096 787.643 302.194 812.438 372.937V373.059C851.144 474.734 776.432 586.147 685.068 622.561Z" fill="#E4E4E4"/>
<path d="M890.097 207.803C811.294 100.236 684.538 48.1508 551.031 68.363C416.951 88.6979 310.858 176.42 267.242 302.89C202.228 485.168 295.474 700.26 470.837 772.639C511.957 789.782 555.082 798.334 598.206 798.334C641.331 798.334 687.156 789.251 729.422 771.084C820.172 732.051 893.165 654.803 929.662 559.184C975.896 441.757 960.348 303.831 890.097 207.803ZM919.065 555.051V555.133C882.732 651.202 800.778 721.331 694.194 747.558C579.467 775.748 456.517 747.149 373.131 672.846C271.784 586.801 237.947 435.415 292.651 312.832C341.299 201.379 441.051 126.258 559.46 111.897C573.207 110.219 586.873 109.401 600.457 109.401C705.077 109.401 803.397 158.131 869.352 244.422C939.072 333.454 958.589 455.381 919.065 555.051Z" fill="#E4E4E4"/>
<path d="M784.985 422.689V422.526C777.334 382.797 750.821 348.183 712.156 327.561C674.187 307.267 631.553 304.526 595.097 320.033C529.714 349.901 512.244 434.105 536.916 493.964C553.65 536.598 598.78 557.628 640.759 557.628C649.31 557.628 657.739 556.728 665.758 555.01C704.955 549.363 743.088 527.269 765.305 497.36C782.121 474.734 788.913 448.875 784.985 422.689ZM732.041 479.971C711.706 502.229 675.496 516.631 642.068 515.649C612.486 515.158 587.569 499.856 578.649 476.657C566.293 444.702 570.753 404.564 589.574 379.074C603.526 360.457 624.229 350.638 648.328 350.638C655.734 350.638 663.467 351.579 671.445 353.461C711.174 362.953 743.211 393.721 749.389 428.295C751.598 447.239 745.584 465.078 732.041 479.971Z" fill="#E4E4E4"/>
<path d="M823.485 369.009C801.595 307.104 757.284 256.492 701.926 230.101C650.945 205.797 595.3 203.179 541.005 222.532C483.438 242.376 435.935 287.055 410.69 345.237C386.059 401.905 385.732 465.324 409.708 519.127C439.535 591.056 507.537 646.21 587.199 663.067C603.361 666.504 619.399 668.182 635.152 668.182C688.219 668.182 737.727 649.033 775.614 612.946C846.234 547.195 850.53 443.025 823.485 369.009ZM685.068 622.561C634.538 644.451 578.238 644.165 530.613 621.784C484.42 600.099 450.828 560.247 436.017 509.676C418.341 447.443 430.043 382.838 468.217 332.471C506.023 282.514 564.327 253.914 628.319 253.914H629.178C712.154 253.096 787.643 302.194 812.438 372.937V373.059C851.144 474.734 776.432 586.147 685.068 622.561Z" fill="#E4E4E4"/>
<path d="M82.9592 427.354C95.1111 302.808 155.952 186.404 254.313 99.5813C352.469 12.9634 475.092 -33.0254 599.761 -29.7113C726.271 -26.438 842.839 27.8976 928.025 123.271C929.498 125.112 931.666 126.258 933.999 126.463C936.494 126.708 939.031 125.849 940.831 124.13C942.632 122.453 943.614 120.039 943.532 117.543C943.45 115.334 942.591 113.206 941.036 111.651C840.425 -6.67593 693.457 -72.1405 537.733 -68.1717C384.669 -64.2029 242.938 8.62643 148.997 131.618C0.964851 323.675 11.8074 603.658 174.16 782.786C175.428 784.218 176.696 785.609 178.006 787L179.97 789.128L180.992 789.701C182.752 790.723 184.757 791.255 186.761 791.255C187.825 791.255 188.848 791.133 189.871 790.805C192.694 789.987 195.067 788.105 196.377 785.609C198.422 781.722 197.89 776.935 194.822 773.294C110.372 676.651 70.6437 553.783 82.9592 427.354Z" fill="#E4E4E4"/>
<path d="M1066.69 420.767L1066.36 418.966C1064.85 414.179 1060.55 410.865 1055.84 411.07C1052.86 411.192 1050.08 412.665 1048.11 415.12C1046.19 417.575 1045.37 420.685 1045.78 423.794C1048.4 515.322 1026.22 604.476 981.542 681.725C900.039 826.688 752.498 920.588 586.382 932.986C579.917 933.845 575.171 939.696 575.825 946.079C576.357 951.275 580.408 955.571 585.686 956.512L586.545 956.676H587.405C599.843 956.062 612.281 954.998 624.31 953.525C756.835 937.568 874.794 872.39 956.461 769.938C1035.14 671.25 1074.3 547.236 1066.69 420.726V420.767Z" fill="#E4E4E4"/>
</svg>
