<svg width="104" height="104" viewBox="0 0 104 104" fill="none" xmlns="http://www.w3.org/2000/svg">
<g id="database">
<path id="Vector" d="M84.5 6.5H19.5C17.7023 6.5 16.25 7.95234 16.25 9.75V32.5H87.75V9.75C87.75 7.95234 86.2977 6.5 84.5 6.5ZM29.25 23.5625C27.0055 23.5625 25.1875 21.7445 25.1875 19.5C25.1875 17.2555 27.0055 15.4375 29.25 15.4375C31.4945 15.4375 33.3125 17.2555 33.3125 19.5C33.3125 21.7445 31.4945 23.5625 29.25 23.5625ZM16.25 94.25C16.25 96.0477 17.7023 97.5 19.5 97.5H84.5C86.2977 97.5 87.75 96.0477 87.75 94.25V71.5H16.25V94.25ZM29.25 80.4375C31.4945 80.4375 33.3125 82.2555 33.3125 84.5C33.3125 86.7445 31.4945 88.5625 29.25 88.5625C27.0055 88.5625 25.1875 86.7445 25.1875 84.5C25.1875 82.2555 27.0055 80.4375 29.25 80.4375ZM16.25 65H87.75V39H16.25V65ZM29.25 47.9375C31.4945 47.9375 33.3125 49.7555 33.3125 52C33.3125 54.2445 31.4945 56.0625 29.25 56.0625C27.0055 56.0625 25.1875 54.2445 25.1875 52C25.1875 49.7555 27.0055 47.9375 29.25 47.9375Z" fill="#26605F"/>
</g>
</svg>
