<svg width="104" height="104" viewBox="0 0 104 104" fill="none" xmlns="http://www.w3.org/2000/svg">
<g id="control">
<path id="Vector" d="M89.375 11.375H14.625C12.8273 11.375 11.375 12.8273 11.375 14.625V89.375C11.375 91.1727 12.8273 92.625 14.625 92.625H89.375C91.1727 92.625 92.625 91.1727 92.625 89.375V14.625C92.625 12.8273 91.1727 11.375 89.375 11.375ZM41.0312 69.3672V77.1875C41.0312 77.6344 40.6656 78 40.2188 78H35.3438C34.8969 78 34.5312 77.6344 34.5312 77.1875V69.3672C30.2961 67.9859 27.2188 64.0047 27.2188 59.3125C27.2188 54.6203 30.2961 50.6289 34.5312 49.2578V26.8125C34.5312 26.3656 34.8969 26 35.3438 26H40.2188C40.6656 26 41.0312 26.3656 41.0312 26.8125V49.2578C45.2664 50.6391 48.3438 54.6203 48.3438 59.3125C48.3438 64.0047 45.2664 67.9961 41.0312 69.3672ZM69.4281 54.7523C69.4484 54.7523 69.4586 54.7422 69.4688 54.7422V77.1875C69.4688 77.6344 69.1031 78 68.6562 78H63.7812C63.3344 78 62.9688 77.6344 62.9688 77.1875V54.7422C62.9891 54.7422 62.9992 54.7523 63.0094 54.7523C58.7438 53.3914 55.6562 49.4 55.6562 44.6875C55.6562 39.975 58.7438 35.9836 63.0094 34.6227C62.9891 34.6227 62.9789 34.6328 62.9688 34.6328V26.8125C62.9688 26.3656 63.3344 26 63.7812 26H68.6562C69.1031 26 69.4688 26.3656 69.4688 26.8125V34.6328C69.4484 34.6328 69.4383 34.6227 69.4281 34.6227C73.6937 35.9836 76.7812 39.975 76.7812 44.6875C76.7812 49.4 73.6937 53.3914 69.4281 54.7523ZM62.5625 44.6875C62.5625 45.6572 62.9477 46.5872 63.6334 47.2729C64.3191 47.9585 65.2491 48.3438 66.2188 48.3438C67.1884 48.3438 68.1184 47.9585 68.8041 47.2729C69.4898 46.5872 69.875 45.6572 69.875 44.6875C69.875 43.7178 69.4898 42.7878 68.8041 42.1021C68.1184 41.4165 67.1884 41.0312 66.2188 41.0312C65.2491 41.0312 64.3191 41.4165 63.6334 42.1021C62.9477 42.7878 62.5625 43.7178 62.5625 44.6875ZM40.9703 57.5352L40.818 57.2914C40.818 57.2812 40.8078 57.2813 40.8078 57.2711L40.7164 57.1492C40.7062 57.1391 40.6961 57.1289 40.6961 57.1188C40.5945 56.9867 40.493 56.8648 40.3711 56.7531L40.3508 56.7328C40.3102 56.6922 40.2695 56.6516 40.2289 56.6211C40.1477 56.5398 40.0562 56.4688 39.9648 56.4078H39.9547L39.8328 56.3164C39.8227 56.3062 39.8023 56.2961 39.7922 56.2859C39.6703 56.2047 39.5383 56.1234 39.3961 56.0625C39.3758 56.0523 39.3453 56.0422 39.325 56.0219C39.2844 56.0016 39.2539 55.9914 39.2133 55.9711C39.1828 55.9609 39.1422 55.9406 39.1117 55.9305C39.0609 55.9102 39.0102 55.8898 38.9594 55.8797C38.9188 55.8695 38.868 55.8492 38.8273 55.8391L38.7359 55.8086L38.5938 55.7781C38.5734 55.768 38.543 55.768 38.5227 55.7578C38.4516 55.7477 38.3805 55.7273 38.3094 55.7172C38.2891 55.7172 38.2688 55.7172 38.2484 55.707C38.1875 55.6969 38.1367 55.6969 38.0758 55.6867C38.0555 55.6867 38.0352 55.6867 38.0047 55.6766C37.9234 55.6766 37.8523 55.6664 37.7711 55.6664C37.6898 55.6664 37.6188 55.6664 37.5375 55.6766C37.5172 55.6766 37.4969 55.6766 37.4664 55.6867C37.4055 55.6867 37.3445 55.6969 37.2938 55.707C37.2734 55.707 37.2531 55.707 37.2328 55.7172C37.1617 55.7273 37.0906 55.7375 37.0195 55.7578C36.9992 55.768 36.9687 55.768 36.9484 55.7781L36.8062 55.8086L36.7148 55.8391C36.6742 55.8492 36.6234 55.8695 36.5828 55.8797C36.532 55.9 36.4813 55.9203 36.4305 55.9305C36.4 55.9406 36.3594 55.9609 36.3289 55.9711C36.2883 55.9914 36.2578 56.0016 36.2172 56.0219C36.1969 56.032 36.1664 56.0422 36.1461 56.0625C36.0141 56.1336 35.882 56.2047 35.75 56.2859C35.7398 56.2961 35.7195 56.3062 35.7094 56.3164L35.5875 56.4078H35.5773C35.4859 56.4789 35.3945 56.55 35.3133 56.6211C35.2727 56.6617 35.232 56.6922 35.1914 56.7328L35.1711 56.7531C35.0575 56.8702 34.949 56.9922 34.8461 57.1188C34.8359 57.1289 34.8258 57.1391 34.8258 57.1492L34.7344 57.2711C34.7344 57.2813 34.7242 57.2812 34.7242 57.2914L34.5719 57.5352C34.5617 57.5555 34.5516 57.5656 34.5414 57.5859C34.2672 58.1039 34.1047 58.693 34.1047 59.3125C34.1047 59.932 34.2672 60.5312 34.5414 61.0391C34.5516 61.0594 34.5617 61.0695 34.5719 61.0898L34.7242 61.3336C34.7242 61.3438 34.7344 61.3437 34.7344 61.3539L34.8258 61.4758C34.8359 61.4859 34.8461 61.4961 34.8461 61.5062C34.9477 61.6383 35.0492 61.7602 35.1711 61.8719L35.1914 61.8922C35.232 61.9328 35.2727 61.9734 35.3133 62.0039C35.3945 62.0852 35.4859 62.1562 35.5773 62.2172H35.5875L35.7094 62.3086C35.7195 62.3188 35.7398 62.3289 35.75 62.3391C35.8719 62.4203 36.0039 62.5016 36.1461 62.5625C36.1664 62.5727 36.1969 62.5828 36.2172 62.6031C36.2578 62.6234 36.2883 62.6336 36.3289 62.6539C36.3594 62.6641 36.4 62.6844 36.4305 62.6945C36.4813 62.7148 36.532 62.7352 36.5828 62.7453C36.6234 62.7555 36.6742 62.7758 36.7148 62.7859L36.8062 62.8164L36.9484 62.8469C36.9687 62.857 36.9992 62.857 37.0195 62.8672C37.0906 62.8773 37.1617 62.8977 37.2328 62.9078C37.2531 62.9078 37.2734 62.9078 37.2938 62.918C37.3547 62.9281 37.4055 62.9281 37.4664 62.9383C37.4867 62.9383 37.507 62.9383 37.5375 62.9484C37.6188 62.9484 37.6898 62.9586 37.7711 62.9586C37.8523 62.9586 37.9234 62.9586 38.0047 62.9484C38.025 62.9484 38.0453 62.9484 38.0758 62.9383C38.1367 62.9383 38.1977 62.9281 38.2484 62.918C38.2688 62.918 38.2891 62.918 38.3094 62.9078C38.3805 62.8977 38.4516 62.8875 38.5227 62.8672C38.543 62.857 38.5734 62.857 38.5938 62.8469L38.7359 62.8164L38.8273 62.7859C38.868 62.7758 38.9188 62.7555 38.9594 62.7453C39.0102 62.725 39.0609 62.7047 39.1117 62.6945C39.1422 62.6844 39.1828 62.6641 39.2133 62.6539C39.2539 62.6336 39.2844 62.6234 39.325 62.6031C39.3453 62.593 39.3758 62.5828 39.3961 62.5625C39.5281 62.4914 39.6602 62.4203 39.7922 62.3391C39.8023 62.3289 39.8227 62.3188 39.8328 62.3086L39.9547 62.2172H39.9648C40.0562 62.1461 40.1477 62.075 40.2289 62.0039C40.2695 61.9633 40.3102 61.9328 40.3508 61.8922L40.3711 61.8719C40.4828 61.7602 40.5945 61.6281 40.6961 61.5062C40.7063 61.4961 40.7164 61.4859 40.7164 61.4758L40.8078 61.3539C40.8078 61.3437 40.818 61.3438 40.818 61.3336L40.9703 61.0898C40.9805 61.0695 40.9906 61.0594 41.0008 61.0391C41.275 60.5211 41.4375 59.932 41.4375 59.3125C41.4375 58.693 41.275 58.0938 41.0008 57.5859C40.9906 57.5656 40.9805 57.5453 40.9703 57.5352Z" fill="#26605F"/>
</g>
</svg>
